# xmcd
#
# Track frame offsets: 
#        150
#        18850
#        39316
#        55080
#        85532
#        114594
#        130984
#        149346
#        166144
#        188297
#
# Disc length: 3243 seconds
#
# Revision: 0
# Processed by: cddbd v1.5.2PL0 Copyright (c) Steve Scherf et al.
# Submitted via: ExactAudioCopy v1.0b3
#
DISCID=700ca90a
DTITLE=Scotty Bratcher - Put My Mind At Ease
DYEAR=2010
DGENRE=Rock
TTITLE0=Mind At Ease 
TTITLE1=Don't Let It Bring You Down 
TTITLE2=Back Home To You 
TTITLE3=Ballerina 
TTITLE4=New Minglewood Blues
TTITLE5=I Get By 
TTITLE6=Missing You Again 
TTITLE7=Livin For The Moment 
TTITLE8=Ready For Rain 
TTITLE9=No Quarter 
EXTD=
EXTT0=
EXTT1=
EXTT2=
EXTT3=
EXTT4=
EXTT5=
EXTT6=
EXTT7=
EXTT8=
EXTT9=
PLAYORDER=
